#!OML:ASF I:\Actors\actors\Patient Classification 1\Patient 1\Session 1\Subject1.ASF
:FULLY-SPECIFIED
:DEGREES
367
root 0.943861 17.5542 8.64849 8.5146 -1.7423 -8.67355
lowerback -2.83894 0.771855 5.72299
upperback -8.88229 1.30052 2.74943
thorax -7.68326 0.356669 -0.349244
lowerneck -11.8494 -6.0928 -2.94609
upperneck 24.9471 -9.96812 7.16464
head 10.4599 -4.08799 1.76113
rclavicle -1.74061e-014 4.82053e-015
rhumerus 33.9882 79.6288 -73.1442
rradius 117.541
rwrist -20.4768
rhand 17.1754 -39.8317
rfingers 7.12502
rthumb 41.8952 -64.4567
lclavicle -1.74061e-014 4.82053e-015
lhumerus -120.515 -79.1854 213.434
lradius 80.9437
lwrist 59.4423
lhand 59.2461 -11.1847
lfingers 7.12502
lthumb 74.4196 -40.9568
rfemur -5.31291 22.097 25.0483
rtibia 5.57911
rfoot -13.3977 -19.7702
rtoes 2.10656
lfemur 3.1022 -37.9412 -10.6564
ltibia -2.53249
lfoot -18.2277 46.6335
ltoes 7.14492
368
root 0.945627 17.5515 8.6516 8.5061 -1.45853 -8.66313
lowerback -2.98126 0.584899 5.68761
upperback -8.78345 1.03767 2.85251
thorax -7.50686 0.238202 -0.211647
lowerneck -12.4156 -6.09966 -2.86559
upperneck 24.7508 -9.89469 6.88204
head 10.4724 -4.06829 1.64009
rclavicle 7.87684e-015 -5.22804e-014
rhumerus 25.9565 80.4156 -79.9596
rradius 116.276
rwrist -22.0456
rhand 18.0081 -38.3122
rfingers 7.12502
rthumb 42.6752 -62.6719
lclavicle 7.87684e-015 -5.22804e-014
lhumerus -118.404 -79.3446 211.867
lradius 80.6087
lwrist 60.9653
lhand 55.5623 -9.80465
lfingers 7.12502
lthumb 73.0838 -27.7619
rfemur -5.21163 21.9931 25.0522
rtibia 5.46091
rfoot -13.4468 -19.9331
rtoes 2.07811
lfemur 2.90525 -37.9496 -10.5554
ltibia -2.41069
lfoot -18.0895 46.3984
ltoes 6.95899
369
root 0.951446 17.5418 8.64932 8.55654 -1.23534 -8.73377
lowerback -3.11629 0.443401 5.89964
upperback -8.65076 0.832539 2.86876
thorax -7.29343 0.128828 -0.306128
lowerneck -12.816 -6.03619 -2.82896
upperneck 24.1121 -9.78925 7.04388
head 10.3187 -4.00494 1.69285
rclavicle -1.52878e-014 1.26228e-014
rhumerus 19.5329 80.9252 -85.2116
rradius 115.023
rwrist -22.9062
rhand 18.6285 -37.0042
rfingers 7.12502
rthumb 43.2553 -61.1592
lclavicle -1.52878e-014 1.26228e-014
lhumerus -112.1 -79.7491 205.488
lradius 80.484
lwrist 60.7507
lhand 57.4297 -9.74569
lfingers 7.12502
lthumb 73.8494 -33.4452
rfemur -5.32146 21.7505 25.0749
rtibia 5.51907
rfoot -13.4526 -19.9042
rtoes 1.55865
lfemur 2.64186 -37.9451 -10.3449
ltibia -2.29078
lfoot -18.0071 46.1859
ltoes 6.83646
370
root 0.95477 17.53 8.64654 8.54023 -1.05835 -8.8569
lowerback -3.16317 0.373423 6.20868
upperback -8.49837 0.727509 2.83336
thorax -7.10591 0.0610181 -0.513047
lowerneck -12.4567 -5.62036 -3.76344
upperneck 23.0225 -9.40769 9.08118
head 9.99644 -3.72705 2.62079
rclavicle -4.16205e-015 -4.52732e-014
rhumerus 15.6509 81.1278 -88.15
rradius 113.933
rwrist -22.5967
rhand 19.24 -36.2664
rfingers 7.12502
rthumb 43.8265 -60.2137
lclavicle -4.16205e-015 -4.52732e-014
lhumerus -103.656 -79.7 196.671
lradius 80.395
lwrist 60.2269
lhand 59.978 -9.68384
lfingers 7.12502
lthumb 74.596 -42.0187
rfemur -5.40628 21.5911 25.1945
rtibia 5.66628
rfoot -13.4878 -19.9153
rtoes 1.63874
lfemur 2.60531 -38.0687 -10.1769
ltibia -2.3292
lfoot -17.7763 46.1638
ltoes 6.51777
371
root 0.948305 17.5253 8.64638 8.15951 -0.889329 -8.72871
lowerback -2.75271 0.262149 6.11614
upperback -8.36104 0.600392 2.73589
thorax -7.19765 0.000134411 -0.562846
lowerneck -12.6 -5.63149 -3.9433
upperneck 22.4853 -9.42376 9.47751
head 9.86509 -3.71856 2.77903
rclavicle -5.30507e-015 4.27387e-015
rhumerus 14.681 81.2243 -88.5131
rradius 113.037
rwrist -21.8126
rhand 19.9815 -35.8359
rfingers 7.12502
rthumb 44.5178 -59.5229
lclavicle -5.30507e-015 4.27387e-015
lhumerus -95.6676 -78.9175 188.255
lradius 80.045
lwrist 60.3949
lhand 60.4557 -9.34661
lfingers 7.12502
lthumb 74.6938 -43.3843
rfemur -4.9531 21.8651 25.2598
rtibia 5.69338
rfoot -13.624 -20.3928
rtoes 2.03707
lfemur 3.26769 -38.4666 -10.6552
ltibia -2.59719
lfoot -17.5907 46.372
ltoes 6.29226
